# xmcd
#
# Track frame offsets:
#	150
#	24414
#	47184
#	67741
#	98521
#	122901
#	151306
#	180070
#	204209
#	230502
#	248874
#	269425
#	292903
#	314607
#
# Disc length: 4503 seconds
#
# Revision: 0
# Processed by: cddbd v1.5.2PL0 Copyright (c) Steve Scherf et al.
# Submitted via: EasyCDDAExtractor 10.0.2.1
#
DISCID=b211950e
DTITLE=Various Artist - 38-51
DYEAR=1900
DGENRE=
TTITLE0=Meat Beat Manifesto - Original Control (Version 2)
TTITLE1=Meat Beat Manifesto - Your Mind Belongs To The State
TTITLE2=Meat Beat Manifesto - Euthanasia
TTITLE3=Meat Beat Manifesto - Helter Skelter '97
TTITLE4=Meat Beat Manifesto - Everything Counts
TTITLE5=Meat Beat Manifesto - Prime Audio Soup
TTITLE6=Meat Beat Manifesto - Radio Babylon
TTITLE7=Tosca - Orozco (Dubphonic Dub)
TTITLE8=Chemical Brothers With K-OS - Get Yourself High
TTITLE9=Chemical Brothers - Chemical Beats
TTITLE10=Chemical Brothers - Song To The Siren
TTITLE11=Chemical Brothers - Ruff-Neck Jam
TTITLE12=DJ Krush - Into The Water
TTITLE13=DJ Krush - Roll and Tumble
EXTD=
EXTT0=
EXTT1=
EXTT2=
EXTT3=
EXTT4=
EXTT5=
EXTT6=
EXTT7=
EXTT8=
EXTT9=
EXTT10=
EXTT11=
EXTT12=
EXTT13=
PLAYORDER=
